<?xml version="1.0" encoding="utf-8"?>
<!-- Generator: Adobe Illustrator 18.1.1, SVG Export Plug-In . SVG Version: 6.00 Build 0)  -->
<svg version="1.1" id="Calque_1" xmlns="http://www.w3.org/2000/svg" xmlns:xlink="http://www.w3.org/1999/xlink" x="0px" y="0px"
	 viewBox="0 0 631.6 659.9" enable-background="new 0 0 631.6 659.9" xml:space="preserve">
<g>
	<g>
		<path fill="#65B6BA" d="M92.5,388.5c0,0.8-0.3,1.4-1.1,2c-0.8,0.6-2,0.8-3.4,1.1c-4.2,0-9.3,0-15.2,0c-5.9,0-12.4,0-19.7,0
			c-1.1,0-2,0.3-2.5,0.8c-0.6,0.6-0.8,1.4-0.8,2.5v49.5c0,1.4,0.3,2.5,0.8,3.4c0.6,0.8,1.4,1.1,2.2,1.1c2,0,5.3,0,10.1,0
			c4.8,0,11-0.3,18.3-0.6c1.4,0,2.5,0.3,3.4,0.8c0.8,0.6,1.1,1.4,1.1,2.5c0.3,3.6,0.6,8.7,0.6,14.9c0,6.2-0.3,13.5-0.6,21.9
			c0,0.8-0.3,1.7-0.8,2.3c-0.6,0.6-1.4,0.8-2.2,0.8c-3.4,0-7.6,0-12.4,0c-4.8,0-10.4,0-16.6,0c-1.1,0-2,0.3-2.5,0.8
			c-0.6,0.6-0.8,1.4-0.8,2.5c-0.3,3.4-0.3,8.2-0.3,14.6c0,6.5,0,14.6,0,24.5c0.3,13.8,0.6,24.2,0.6,31.5c0,7.3,0,11.2,0,11.8
			c0,1.1-0.3,2-0.8,2.5c-0.6,0.6-1.7,0.8-3.1,0.8c-6.5,0.6-12.6,0.8-18.6,0.8c-5.9,0-11.8-0.3-17.4-0.8c-1.1,0-2-0.3-2.5-0.8
			c-0.6-0.6-0.8-1.4-0.8-2.5c0,0,0-18.3,0-54.5c0-36.3,0-90.8,0-163.6c0-1.4,0.3-2.5,1.1-3.4c0.8-0.8,2-1.1,3.4-1.1
			c4.2,0,9.8,0,16.6,0c6.7,0,14.9,0,24.2,0c12.1,0,21.4,0,27.5,0s9.3,0,9.3,0c1.4,0,2.5,0.3,3.4,0.8c0.8,0.6,1.1,1.4,1.1,2.5
			c0,6.2,0,11.8,0,16.6c0,4.8,0,8.7,0,12.1L92.5,388.5z"/>
		<path fill="#65B6BA" d="M194.5,585c-1.7,0.3-5.3,0.3-11,0.3c-5.6,0-12.9-0.3-22.2-0.6c-1.1,0-2-0.6-2.5-2
			c-0.6-1.4-0.8-3.4-1.1-5.9c-0.6-6.5-0.8-13.2-1.1-20.2c-0.3-7-0.3-14.3-0.3-22.2c0-14.1-1.1-24.7-3.7-31.8
			c-2.5-7-6.2-10.7-11.2-10.7c-0.6-0.3-1.1-0.3-1.7-0.3c-0.6,0-1.1,0-1.7,0.3c-0.6,0.3-1.1,0.8-1.4,2c-0.3,1.1-0.6,2.5-0.6,4.2
			c0,14.6,0,28.4,0,41.3c0,12.9,0,25,0,36.3c0,2.5-0.3,4.5-0.8,5.9c-0.6,1.4-1.4,2-2.5,2c-5.1,0.6-10.1,0.8-14.9,0.8
			c-4.8,0-9.6-0.3-14.1-0.6c-1.1,0-2-0.8-2.5-2.2c-0.6-1.4-0.8-3.4-0.8-5.9l0.6-216.4c0-1.7,0.6-3.1,1.4-3.9
			c0.8-0.8,2.2-1.4,3.9-1.4c5.1,0,11.2,0,18.3,0c7,0,14.9,0,23.9,0c5.9,0,11.2,0.6,16.3,1.7c5.1,1.1,9.6,3.1,13.5,5.6
			c4.5,2.8,7.9,5.9,10.1,9.6c2.2,3.7,3.4,7.6,3.4,12.1l-0.3,55.4c0,4.5-0.6,8.7-2,12.6c-1.4,3.9-3.4,7.6-6.2,11
			c-2,2.2-3.9,4.2-6.2,5.9c-2.3,1.7-4.5,2.8-6.7,3.7c-0.8,0.3-1.4,0.6-1.7,0.8c-0.3,0.3-0.6,0.6-0.6,0.8s0.3,0.6,0.6,0.8
			c0.3,0.3,0.8,0.6,1.7,0.8c1.7,0.6,3.4,1.4,5.3,2.5c2,1.1,3.9,2.5,5.9,4.2c4.5,3.9,7.9,10.4,10.1,19.7c2.2,9.3,3.4,21.4,3.4,36.3
			c0,9.6,0.3,17.7,0.8,24.5c0.6,6.7,1.4,12.1,2.2,16.3c0.6,2,0.6,3.7,0,4.8c-0.6,1.1-1.4,1.7-2.8,1.7L194.5,585z M145.4,389.1
			c-0.8,0-1.7,0-2.5,0c-0.8,0-1.4,0-2,0c-0.8,0-1.4,0.3-2,1.1c-0.6,0.8-0.8,2-0.8,3.7c0,0,0,4.2,0,12.4c0,8.2,0,20.5,0,37.1
			c0,2.5,0.3,4.5,0.8,5.9c0.6,1.4,1.7,2.3,3.1,2.3c0.6,0,1.1,0,1.7,0c0.6,0,1.1,0,1.7,0c2,0,3.7-0.6,5.1-1.7
			c1.4-1.1,2.5-2.8,3.4-4.8c1.1-3.1,2-7.9,2.5-14.3c0.6-6.5,0.8-14.6,0.8-24.5c0-6.2-1.1-10.7-3.1-13.8c-2-3.1-5.1-4.5-9.3-4.2
			L145.4,389.1z"/>
		<path fill="#65B6BA" d="M319.9,585c-1.4,0-3.4,0-5.9,0c-2.5,0-5.6,0-9.3,0c-3.7,0-7,0-10.1,0c-3.1,0-5.9,0-8.4,0
			c-0.8,0-1.7-1.4-2.8-4.5c-1.1-3.1-2.2-7.6-3.7-13.8c-0.8-4.5-1.7-8.7-2.5-12.6c-0.8-3.9-1.4-7.6-2-11c0-0.6-0.3-1.1-0.8-1.4
			c-0.6-0.3-1.4-0.6-2.2-0.6c-3.7,0-6.5,0-8.4,0c-2,0-2.8,0-2.8,0c-0.6,0-1.1,0.3-1.7,0.6c-0.6,0.3-0.8,0.8-1.1,1.4
			c-0.8,5.6-2,11.8-3.1,18.3c-1.1,6.5-2.5,13.5-3.9,20.8c-0.3,0.8-0.6,1.4-1.1,2c-0.6,0.6-1.1,0.8-1.7,0.8h-34.6
			c-1.4,0-2.5-0.3-3.1-0.8c-0.6-0.6-0.8-1.4-0.6-2.5c3.1-19.1,6.2-38.2,9.3-57.3c3.1-19.1,6.2-38.2,9.3-57.3
			c6.2-36.8,11.2-64.7,14.9-83.2c3.7-18.6,6.2-27.8,7.3-27.8c5.1-0.3,10.1-0.6,15.2-0.6c5.1,0,10.1,0.3,15.2,0.6
			c1.1,0,3.4,9.3,6.7,27.8c3.4,18.5,8.2,46.4,14.1,83.5c3.1,19.4,6.2,38.8,9.3,58.2c3.1,19.4,5.9,38.8,8.7,58.2
			c0,0.6-0.3,1.1-0.8,1.4c-0.6,0.3-1.1,0.6-2,0.6L319.9,585z M265.4,473.9c-0.6,0-1.1,1.1-1.7,3.4c-0.6,2.3-1.1,5.6-1.7,10.1
			c-0.3,3.1-0.6,6.2-0.8,9.3c-0.3,3.1-0.6,6.2-0.8,9.3c-0.3,0.6,0.6,1.1,2.5,1.4c2,0.3,3.9,0.3,5.6,0c0.8,0,1.7-0.3,2.2-0.6
			c0.6-0.3,0.8-0.6,0.8-0.8c-1.4-10.7-2.5-18.8-3.4-24.2c-0.8-5.3-1.4-8.2-1.7-8.2L265.4,473.9z"/>
		<path fill="#65B6BA" d="M436.6,576.5c0,2.5-0.3,4.5-1.1,5.9c-0.8,1.4-2,2.3-3.4,2.5c-4.5,0.8-9,1.1-13.8,1.1
			c-4.8,0-9.6-0.3-14.6-1.1c-1.7-0.3-3.1-0.8-4.2-2c-1.1-1.1-2-2.5-2.5-4.2c-3.1-14.1-6.5-29-10.1-45c-3.7-16-7.6-32.9-11.8-50.6
			c-0.3-1.4-0.8-2.5-1.4-3.4c-0.6-0.8-1.1-1.1-2-1.1c-0.6,0-1.1,0.6-1.4,1.7c-0.3,1.1-0.6,2.5-0.6,4.5c0,2,0,6.2,0,12.9
			c0,6.7,0,15.7,0,27c0,11.2,0,21.4,0,30.1c0,8.7,0,16.3,0,22.5c0,2-0.6,3.4-1.7,4.5c-1.1,1.1-2.8,2-5.1,2.5
			c-1.7,0.3-3.7,0.6-5.9,0.8c-2.2,0.3-4.5,0.3-7,0.3c-3.4,0-5.9,0-7.9,0c-2,0-3.1,0-3.7,0c-2,0-3.4-0.6-4.5-1.7
			c-1.1-1.1-1.7-2.8-1.7-5.1c-0.3-13.2-0.6-29.8-0.6-49.5c0-19.7,0-42.7,0.3-69.2c0.3-25.6,0.6-46.4,0.8-62.7
			c0.3-16.3,0.6-27.8,1.1-34.9c0.3-2.2,0.6-3.9,1.1-5.1c0.6-1.1,1.4-1.7,2.5-1.7c2.3,0,4.8,0,7.9,0c3.1,0,6.5,0,10.4,0
			c4.8,0.3,8.4,0.6,11,0.6c2.5,0,3.9,0,4.2,0c1.4,0,2.5,0.6,3.4,1.7c0.8,1.1,1.4,2.5,1.7,4.5c4.8,22.8,8.7,41.3,12.1,55.9
			c3.4,14.6,5.9,25.3,7.9,31.8c0.8,2.5,1.4,4.5,2,5.9c0.6,1.4,1.1,2,1.7,2c0.6,0,1.1-0.8,1.4-2.2c0.3-1.4,0.3-3.7,0-6.5
			c-0.3-7.6-0.6-18.5-0.8-32.9c-0.3-14.3-0.3-32.3-0.3-53.7c0-2.2,0.6-3.9,1.4-5.1c0.8-1.1,2.2-1.7,4.2-1.7c3.1,0,6.7,0,11.2,0
			c4.5,0,9.6,0,15.2,0c2,0,3.4,0.6,4.5,1.7c1.1,1.1,1.7,2.5,1.7,4.5c0-4.8-0.3,10.7-0.6,46.4c-0.3,35.7-0.6,91.9-0.8,168.4
			L436.6,576.5z"/>
		<path fill="#65B6BA" d="M530.1,566.1c-4.2,6.2-9.3,11-15.2,14.1c-5.9,3.1-12.9,4.8-20.8,4.8c-9.3,0-17.1-2-23.6-5.9
			c-6.5-3.9-11.5-9.8-15.2-17.7c-2.5-5.3-4.5-12.1-5.6-20.5c-1.1-8.4-1.7-18.3-1.7-29.5V402.8c0-5.1,0.6-10.1,2-15.2
			c1.4-5.1,3.4-10.1,6.2-15.2c4.2-7.6,9.3-13.2,15.5-17.2c6.2-3.9,13.5-5.9,21.9-5.9c9,0,16.6,1.7,23.1,5.1
			c6.5,3.4,11.5,8.4,15.5,15.2c3.1,5.1,5.3,11,6.7,18c1.4,7,2,14.9,1.7,23.6c0,5.6,0,9.8-0.3,12.9c-0.3,3.1-1.7,4.8-4.2,5.1
			c-1.4,0.3-3.4,0.3-5.6,0.3c-2.3,0-5.1,0-8.4,0c-4.8-0.3-8.1-0.6-10.4-0.6c-2.2,0-3.1,0-2.5,0c-1.7,0-3.1-0.3-3.9-1.1
			c-0.8-0.8-1.4-2-1.4-3.7c0-3.4,0-6.7,0-10.1c0-3.4,0-6.7,0-10.1c-0.6-4.8-1.7-8.4-3.4-11c-1.7-2.5-3.9-3.7-6.7-3.7
			c-3.9,0-6.7,4.2-8.7,12.6c-2,8.4-2.8,21.1-2.8,37.7v79.8c0,2.5,0.3,5.1,0.6,7.6c0.3,2.5,0.8,5.1,1.7,7.3c1.1,3.4,2.5,5.9,4.2,7.6
			c1.7,1.7,3.4,2.5,5.3,2.5c3.7,0,6.5-2.5,8.4-7.6c2-5.1,2.8-12.4,2.8-22.2c0-1.1,0-2.2,0-3.7c0-1.4,0-2.8,0-4.2c0-1.7,0-3.1,0-3.9
			c0-0.8,0-1.4,0-1.7c0-1.7,0.3-3.1,0.8-3.9c0.6-0.8,1.7-1.4,3.1-1.4c5.9,0,11.2,0,16,0c4.8,0,9,0,12.4,0c1.4,0,2.5,0.3,3.4,1.1
			c0.8,0.8,1.1,2,1.1,3.7c0,2.5,0,5.6,0,9.3c0,3.7,0,7.9,0,12.6c0,8.7-0.8,16.6-2.8,23.6c-2,7-4.8,13.2-8.4,18.8L530.1,566.1z"/>
		<path fill="#65B6BA" d="M626.6,584.4c-12.9,0.8-25.3,1.1-37.1,1.1c-11.8,0-23-0.6-33.7-1.4c-0.8,0-1.7-0.6-2.2-1.4
			c-0.6-0.8-0.8-2.2-0.8-3.9l-0.3-219.5c0-1.1,0.3-2,0.8-2.5c0.6-0.6,1.4-0.8,2.2-0.8c7.3-0.3,16.9-0.3,28.4-0.3s25.3,0.3,41.3,0.6
			c1.4,0,2.5,0.3,3.4,0.8c0.8,0.6,1.1,1.4,1.1,2.5c0,1.4,0,3.4,0,5.9c0,2.5,0,5.6,0,9.3c-0.3,8.7-0.3,14.3-0.3,16.6
			c0,2.3-1.1,3.4-3.1,3.4c-3.7,0-8.2,0-13.5,0c-5.3,0-11.5,0-18.6,0c-1.4,0-2.5,0.3-3.4,0.8c-0.8,0.6-1.1,1.4-1.1,2.5
			c0,0.3,0,2.2,0,5.6c0,3.4,0,8.2-0.3,14.3c0,5.3,0,9.8,0,13.8c0,3.9,0,7.3,0,9.8c0,0.8,0.3,1.7,0.8,2.3c0.6,0.6,1.4,1.1,2.5,1.4
			c2,0.3,5.1,0.6,9.3,0.6c4.2,0,9.8,0,16.6-0.3c1.4,0,2.5,0.3,3.1,0.8c0.6,0.6,0.8,1.4,0.8,2.5c0.3,1.7,0.3,4.2,0.3,7.3
			c0,3.1-0.3,7-0.6,11.8c-0.3,5.3-0.6,9.6-0.6,12.6c0,3.1,0,5.1,0,5.9c0,1.4-0.3,2.5-0.8,3.1c-0.6,0.6-1.4,0.8-2.5,0.8
			c0,0-2.2,0-6.5,0c-4.2,0-10.7,0-19.1,0c-0.8,0-1.7,0.3-2.2,0.8c-0.6,0.6-0.8,1.7-1.1,3.1c-0.3,3.9-0.6,9.6-0.6,16.9
			c0,7.3,0,16.6,0.3,27.5c0,1.1,0.6,2,1.4,2.8c0.8,0.8,2.2,1.4,3.9,1.7c3.7-0.3,8.2-0.6,13.2-0.6c5.1,0,11,0,17.4,0
			c1.4,0,2.5,0.3,3.4,0.8c0.8,0.6,1.1,1.4,1.1,2.8c0,7.6,0,14.3,0,20c0,5.6,0,10.4,0,14.1c0,1.1-0.3,2-1.1,2.5
			c-0.8,0.6-2,0.8-3.4,0.8L626.6,584.4z"/>
	</g>
	<g>
		<path fill="#FFFFFF" d="M105.5,259.7c0,17.8-4.6,31.9-13.7,42.2c-9.1,10.3-22,15.5-38.6,15.5c-14.4,0-26.6-5.6-36.7-16.7
			C5.8,288.7,0.6,273.2,1,254.2c0-3.2,0.1-8.5,0.3-15.8c0.2-4.2,1.3-6.4,3.4-6.4c2,0,7.7-0.2,17.2-0.6c9.4-0.4,15.2-0.6,17.2-0.6
			c2,0,3,2.6,3,7.9v14.9c0,14.6,4,21.9,11.8,21.9c6.3,0,9.6-5,10-14.9l0.6-17c0.2-5.1-5.1-12.9-15.8-23.4
			c-18-17.8-28-27.8-29.8-30.1c-10.7-12.6-16.1-24-16.1-34.3V130c0-18.4,4.3-33.1,13.1-44C25.2,74,38.8,67.8,56.6,67.4
			c14.6-0.2,26.2,4.9,34.9,15.2c8.1,9.7,12.1,22.6,12.1,38.6v30.1c0,3-1.1,4.6-3.4,4.8c-5.9,0.6-16.9,0.6-33.1,0
			c-2.6,0-3.9-1.5-3.9-4.6c-0.2-4.7,0-12.7,0.6-24.3c0.2-4.3-0.5-8.5-2.3-12.6c-1.7-4.2-4-6.2-6.8-6.2c-7.9,0-11.9,6.7-11.9,20v15.8
			c0,6.3,5.4,15.2,16.1,26.7c10.1,10.7,20.3,21.5,30.4,32.2c10.7,13.4,16.1,25.2,16.1,35.6V259.7z"/>
		<path fill="#FFFFFF" d="M183.9,308.9c0,4.8-1.6,7.7-4.9,8.5c-4.8,1.4-15.5,1.4-31.9,0c-4-0.4-6.1-3.7-6.1-9.7
			c0.4-68.5,0.5-144.6,0.3-228.5c0-2,0.2-3.8,0.6-5.5c0.6-2.4,1.7-3.6,3.3-3.6c8.7,0,19.7,0.2,33.1,0.6c3.4,0.4,5.3,3.2,5.5,8.5
			C183.9,138.2,183.9,214.7,183.9,308.9z"/>
		<path fill="#FFFFFF" d="M332.8,76.5c-0.2-10.5-0.7,66.9-1.5,232.4c0,5.3-1.6,8.2-4.9,8.8c-9.7,1.6-19.9,1.6-30.7,0
			c-3.7-0.6-6-2.7-7-6.4C282,281,274.2,246.5,265.3,208c-0.8-3-2-4.5-3.7-4.5c-1.2,0-1.8,2.1-1.8,6.3c0,4.2,0,18.5,0,42.9
			c-0.2,24.2-0.3,43-0.3,56.5c0,4-2.5,6.5-7.6,7.5c-3.4,0.8-8,1.1-13.7,0.9c-7.3-0.2-11.5-0.3-12.5-0.3c-4,0.2-6.2-2.1-6.4-7
			c-0.8-28.3-1-70.9-0.6-127.9c0.4-55.2,1.1-90.2,2.1-105.2c0.4-4.9,1.7-7.4,3.9-7.6c4.8-0.2,11.4-0.2,19.8,0
			c10.1,0.4,15.6,0.6,16.4,0.6c2.8,0,4.7,2.1,5.5,6.4c10.1,49,17.2,80.6,21.3,94.8c1.6,5.5,2.9,8.2,3.9,8.2c1.4,0,1.9-3.1,1.5-9.4
			c-0.8-16.5-1.2-47.7-1.2-93.8c0-4.7,2-6.9,6.1-6.7c6.9,0,16.3,0,28.3,0C330.6,70,332.8,72.2,332.8,76.5z"/>
		<path fill="#FFFFFF" d="M477.4,308.3c0,5.5-1,8.2-3,8.2h-8.5c-1.8,0-3.1-1.3-4-3.9c-0.8-2.6-2.1-6.1-4-10.4
			c-3.4,9.5-14.7,14.3-34,14.3c-20.9,0-35.5-5.2-44.1-15.7c-7.5-9.3-11.1-24.6-10.9-46l0.6-123.3c0.2-25,4.3-41.9,12.5-50.8
			c7.3-7.9,20.3-11.8,39.2-11.8c22.5,0,37.8,5.7,45.9,17c6.1,8.1,9.2,21.7,9.4,40.9c0.6,18,0.8,31.2,0.6,39.7c0,3.4-1.3,5.1-3.9,5.1
			c-7.1,0.2-18.1,0.1-33.1-0.3c-2.4,0-3.7-1.5-3.9-4.5c-0.4-11.9-0.8-23.7-1.2-35.4c-1.4-16.1-5.2-24.2-11.2-24.2
			c-7.5,0-11.2,8-11.2,23.9v127.7c0,3.2,1,7.1,3,11.5c2.4,5.5,5.3,8.2,8.5,8.2c8.1,0,12.1-10.9,12.1-32.8v-15.5
			c0-2.7-0.8-3.8-2.4-3.7h-7.3c-1.8,0-2.7-0.9-2.7-2.7v-29.4c0-3.1,1.5-4.6,4.6-4.6c10.7,0,25.6,0.1,44.6,0.3c3,0,4.5,1.7,4.5,5.2
			V308.3z"/>
		<path fill="#FFFFFF" d="M626.2,316.2c0.2,1.2-0.7,1.8-2.7,1.8c-2.8,0-8.1,0-15.8,0c-7.7-0.2-14.4-0.3-20-0.3
			c-1.8,0-4.1-6.6-7-19.8c-2.1-9.9-3.5-18.4-4.6-25.5c-0.2-1.4-1.3-2.1-3.3-2.1h-11.9c-1.4,0-2.3,0.7-2.7,2.2
			c-1.8,12.3-4.3,26.6-7.3,42.8c-0.8,1.8-1.7,2.8-2.7,2.8h-37.3c-3.3,0-4.6-1.2-4-3.7c6.9-41.4,13.8-82.9,20.6-124.5
			c13.6-80,21.7-120.1,24.3-120.3c11-0.6,21.8-0.6,32.8,0c2.5,0.2,9.9,40.3,22.5,120.3C613.6,231.9,619.9,274,626.2,316.2z
			 M573.4,232c-3.1-23.1-5-34.6-5.8-34.6c-1,0-2.2,5-3.6,14.9c-0.8,6.5-1.6,13-2.4,19.7c-0.2,0.6,0.7,1.1,2.9,1.4
			c2.1,0.3,4.1,0.4,5.9,0.2C572.4,233.3,573.4,232.8,573.4,232z"/>
	</g>
</g>
</svg>
