<?xml version="1.0" encoding="iso-8859-1"?>
<!-- Generator: Adobe Illustrator 19.1.0, SVG Export Plug-In . SVG Version: 6.00 Build 0)  -->
<!DOCTYPE svg PUBLIC "-//W3C//DTD SVG 1.1//EN" "http://www.w3.org/Graphics/SVG/1.1/DTD/svg11.dtd">
<svg version="1.1" xmlns="http://www.w3.org/2000/svg" xmlns:xlink="http://www.w3.org/1999/xlink" x="0px" y="0px"
	 viewBox="0 0 48 48" style="enable-background:new 0 0 48 48;" xml:space="preserve">
<g id="free">
	<rect style="fill:none;" width="48" height="48"/>
	<g>
		<g>
			<path style="fill:#2F757D;" d="M11.339,18.24v1.865c0,0.457,0.371,0.829,0.829,0.829h10.321l3.521-3.522H12.168
				C11.71,17.412,11.339,17.783,11.339,18.24z"/>
			<path style="fill:#2F757D;" d="M12.695,23.061v1.864c0,0.458,0.371,0.829,0.829,0.829h4.144l3.521-3.522h-7.665
				C13.067,22.232,12.695,22.603,12.695,23.061z"/>
			<path style="fill:#2F757D;" d="M22.93,30.575c-0.043-0.274-0.072-0.554-0.091-0.836l-0.834,0.836H22.93z"/>
			<path style="fill:#2F757D;" d="M11.574,16.113h15.735l2.521-2.521v-0.172c0-0.457-0.371-0.829-0.829-0.829H11.574
				c-0.458,0-0.829,0.371-0.829,0.829v1.865C10.745,15.742,11.115,16.113,11.574,16.113z"/>
			<path style="fill:#2F757D;" d="M14.188,27.053c-0.458,0-0.829,0.371-0.829,0.829v1.865c0,0.094,0.019,0.184,0.048,0.269
				l2.962-2.962H14.188z"/>
			<path style="fill:#2F757D;" d="M20.705,31.873l-3.522,3.522h8.114c-0.93-0.995-1.644-2.193-2.061-3.522H20.705z"/>
		</g>
		<path d="M24.001,0.583C11.088,0.583,0.583,11.088,0.583,24s10.504,23.417,23.418,23.417c12.911,0,23.416-10.504,23.416-23.417
			S36.912,0.583,24.001,0.583z M24.001,3.944c4.925,0,9.439,1.788,12.933,4.745L8.689,36.935C5.732,33.44,3.943,28.926,3.943,24
			C3.943,12.941,12.941,3.944,24.001,3.944z M24.001,44.056c-4.927,0-9.441-1.788-12.935-4.745l28.245-28.246
			c2.957,3.495,4.745,8.009,4.745,12.935C44.056,35.059,35.06,44.056,24.001,44.056z"/>
		<path style="fill:#2F757D;" d="M31.938,21.425c-0.282,0-0.559,0.018-0.832,0.048l-6.729,6.73c-0.03,0.273-0.048,0.55-0.048,0.832
			c0,4.196,3.413,7.61,7.61,7.61c4.196,0,7.61-3.414,7.61-7.61C39.547,24.839,36.133,21.425,31.938,21.425z M34.769,31.986
			l-0.22,0.205c-0.676,0.629-1.538,0.975-2.426,0.975c-0.827,0-1.611-0.29-2.269-0.839c-0.54-0.45-0.971-1.074-1.222-1.765h-0.637
			c-0.077,0-0.14-0.062-0.14-0.139v-1.063c0-0.077,0.063-0.139,0.14-0.139h0.374c-0.003-0.062-0.005-0.124-0.005-0.185
			c0-0.061,0.002-0.123,0.005-0.185h-0.374c-0.077,0-0.14-0.062-0.14-0.139v-1.063c0-0.077,0.063-0.139,0.14-0.139h0.637
			c0.251-0.692,0.683-1.315,1.222-1.765c0.658-0.549,1.442-0.839,2.269-0.839c0.806,0,1.575,0.276,2.223,0.8l0.234,0.189
			c0.029,0.023,0.047,0.057,0.051,0.093c0.005,0.036-0.006,0.073-0.03,0.102l-0.668,0.828c-0.049,0.059-0.136,0.068-0.196,0.02
			l-0.234-0.189c-0.407-0.329-0.884-0.503-1.38-0.503c-0.818,0-1.575,0.479-2.021,1.264h2.954c0.077,0,0.139,0.062,0.139,0.139
			v1.063c0,0.077-0.062,0.139-0.139,0.139h-3.345c-0.004,0.062-0.006,0.124-0.006,0.185c0,0.061,0.002,0.123,0.006,0.185h3.345
			c0.077,0,0.139,0.062,0.139,0.139v1.063c0,0.077-0.062,0.139-0.139,0.139h-2.954c0.445,0.784,1.203,1.264,2.021,1.264
			c0.548,0,1.086-0.219,1.513-0.616l0.221-0.205c0.027-0.024,0.062-0.038,0.1-0.037c0.037,0.001,0.071,0.018,0.096,0.044
			l0.724,0.779C34.828,31.846,34.825,31.934,34.769,31.986z"/>
	</g>
</g>
<g id="Layer_1">
</g>
</svg>
