<?xml version="1.0" encoding="iso-8859-1"?>
<!-- Generator: Adobe Illustrator 19.1.0, SVG Export Plug-In . SVG Version: 6.00 Build 0)  -->
<!DOCTYPE svg PUBLIC "-//W3C//DTD SVG 1.1//EN" "http://www.w3.org/Graphics/SVG/1.1/DTD/svg11.dtd">
<svg version="1.1" xmlns="http://www.w3.org/2000/svg" xmlns:xlink="http://www.w3.org/1999/xlink" x="0px" y="0px"
	 viewBox="0 0 48 48" style="enable-background:new 0 0 48 48;" xml:space="preserve">
<g id="instagram_x5F_white">
	<rect style="fill:none;" width="48" height="48"/>
	<g>
		<path style="fill:#FFFFFF;" d="M7.183,1.375h33.634c3.194,0,5.808,2.365,5.808,5.808v33.635c0,3.443-2.613,5.808-5.808,5.808
			H7.183c-3.195,0-5.808-2.365-5.808-5.808V7.183C1.375,3.74,3.988,1.375,7.183,1.375L7.183,1.375z M34.338,6.403
			c-1.121,0-2.036,0.916-2.036,2.037v4.876c0,1.121,0.916,2.037,2.036,2.037h5.114c1.121,0,2.037-0.917,2.037-2.037V8.44
			c0-1.121-0.917-2.037-2.037-2.037H34.338L34.338,6.403z M41.511,20.511h-3.983c0.377,1.23,0.581,2.533,0.581,3.882
			c0,7.527-6.298,13.628-14.066,13.628c-7.767,0-14.064-6.101-14.064-13.628c0-1.349,0.204-2.652,0.581-3.882H6.404v19.114
			c0,0.989,0.809,1.799,1.799,1.799h31.51c0.99,0,1.799-0.809,1.799-1.799L41.511,20.511L41.511,20.511z M24.043,15.096
			c-5.019,0-9.088,3.942-9.088,8.806c0,4.863,4.069,8.806,9.088,8.806c5.019,0,9.088-3.942,9.088-8.806
			C33.131,19.038,29.062,15.096,24.043,15.096z"/>
	</g>
</g>
<g id="Layer_1">
</g>
</svg>
