<?xml version="1.0" encoding="iso-8859-1"?>
<!-- Generator: Adobe Illustrator 19.1.0, SVG Export Plug-In . SVG Version: 6.00 Build 0)  -->
<!DOCTYPE svg PUBLIC "-//W3C//DTD SVG 1.1//EN" "http://www.w3.org/Graphics/SVG/1.1/DTD/svg11.dtd">
<svg version="1.1" xmlns="http://www.w3.org/2000/svg" xmlns:xlink="http://www.w3.org/1999/xlink" x="0px" y="0px"
	 viewBox="0 0 48 48" style="enable-background:new 0 0 48 48;" xml:space="preserve">
<g id="phone">
	<rect style="fill:none;" width="48" height="48"/>
	<g>
		<g>
			<path style="fill:#2F757D;" d="M47.353,37.511c0.099,0.759-0.132,1.419-0.693,1.98l-6.582,6.532
				c-0.297,0.33-0.684,0.611-1.163,0.842c-0.479,0.231-0.949,0.379-1.411,0.445c-0.033,0-0.132,0.009-0.297,0.025
				c-0.165,0.018-0.379,0.025-0.643,0.025c-0.627,0-1.641-0.107-3.044-0.321c-1.402-0.215-3.117-0.742-5.147-1.585
				c-2.03-0.841-4.331-2.103-6.904-3.786c-2.574-1.682-5.312-3.992-8.216-6.928c-2.31-2.276-4.223-4.454-5.741-6.533
				c-1.518-2.079-2.739-4-3.663-5.765c-0.924-1.765-1.616-3.366-2.078-4.802c-0.462-1.434-0.775-2.672-0.94-3.711
				c-0.166-1.039-0.231-1.856-0.198-2.45c0.032-0.594,0.049-0.924,0.049-0.99c0.066-0.462,0.215-0.932,0.445-1.411
				C1.359,8.6,1.639,8.213,1.969,7.915l6.583-6.582c0.462-0.462,0.99-0.693,1.584-0.693c0.428,0,0.808,0.123,1.138,0.371
				c0.33,0.247,0.61,0.552,0.841,0.915l5.295,10.047c0.297,0.528,0.38,1.106,0.248,1.733c-0.132,0.627-0.412,1.155-0.841,1.584
				l-2.425,2.425c-0.066,0.065-0.124,0.173-0.173,0.322c-0.049,0.148-0.074,0.272-0.074,0.372c0.132,0.693,0.429,1.484,0.891,2.375
				c0.396,0.791,1.006,1.757,1.831,2.895c0.825,1.138,1.996,2.45,3.514,3.935c1.485,1.518,2.804,2.697,3.959,3.539
				c1.155,0.841,2.12,1.46,2.896,1.856c0.775,0.396,1.369,0.635,1.781,0.718l0.618,0.124c0.066,0,0.173-0.025,0.322-0.075
				c0.148-0.049,0.255-0.107,0.322-0.173l2.821-2.871c0.594-0.528,1.287-0.791,2.078-0.791c0.561,0,1.006,0.099,1.336,0.297h0.049
				l9.551,5.642C46.809,36.307,47.221,36.851,47.353,37.511z"/>
		</g>
	</g>
</g>
<g id="Layer_1">
</g>
</svg>
