<?xml version="1.0" encoding="iso-8859-1"?>
<!-- Generator: Adobe Illustrator 19.1.0, SVG Export Plug-In . SVG Version: 6.00 Build 0)  -->
<!DOCTYPE svg PUBLIC "-//W3C//DTD SVG 1.1//EN" "http://www.w3.org/Graphics/SVG/1.1/DTD/svg11.dtd">
<svg version="1.1" xmlns="http://www.w3.org/2000/svg" xmlns:xlink="http://www.w3.org/1999/xlink" x="0px" y="0px"
	 viewBox="0 0 48 48" style="enable-background:new 0 0 48 48;" xml:space="preserve">
<g id="print">
	<rect style="fill:none;" width="48" height="48"/>
	<g>
		<g>
			<path style="fill:#2D767D;" d="M12.25,37.219v8.813h23.5v-8.813v-5.875h-23.5V37.219z M15.187,34.281h17.625v2.938H15.187V34.281
				z M15.187,40.156h17.625v2.938H15.187V40.156z"/>
			<polygon style="fill:#2D767D;" points="35.75,10.781 35.75,1.969 12.25,1.969 12.25,10.781 12.25,16.656 35.75,16.656 			"/>
			<path style="fill:#2D767D;" d="M41.625,10.781h-2.938v5.875v2.938H9.312v-2.938v-5.875H6.375c-2.938,0-5.875,2.938-5.875,5.875
				v14.688c0,2.938,2.937,5.875,5.875,5.875h2.937v-5.875v-2.938h29.375v2.938v5.875h2.938c2.937,0,5.875-2.938,5.875-5.875V16.656
				C47.5,13.719,44.562,10.781,41.625,10.781z"/>
		</g>
	</g>
</g>
<g id="Layer_1">
</g>
</svg>
