<?xml version="1.0" encoding="iso-8859-1"?>
<!-- Generator: Adobe Illustrator 19.1.0, SVG Export Plug-In . SVG Version: 6.00 Build 0)  -->
<!DOCTYPE svg PUBLIC "-//W3C//DTD SVG 1.1//EN" "http://www.w3.org/Graphics/SVG/1.1/DTD/svg11.dtd">
<svg version="1.1" xmlns="http://www.w3.org/2000/svg" xmlns:xlink="http://www.w3.org/1999/xlink" x="0px" y="0px"
	 viewBox="0 0 48 48" style="enable-background:new 0 0 48 48;" xml:space="preserve">
<g id="twitter_x5F_white">
	<rect style="fill:none;" width="48" height="48"/>
	<path id="XMLID_388_" style="fill:#FFFFFF;" d="M47.535,9.402c-1.73,0.769-3.594,1.285-5.547,1.524
		c1.994-1.195,3.53-3.093,4.247-5.342c-1.864,1.106-3.929,1.905-6.13,2.338c-1.763-1.875-4.273-3.048-7.049-3.048
		c-5.334,0-9.66,4.325-9.66,9.66c0,0.754,0.086,1.494,0.25,2.196C15.623,16.327,8.507,12.488,3.745,6.646
		c-0.833,1.427-1.307,3.085-1.307,4.856c0,3.347,1.703,6.305,4.292,8.031c-1.58-0.045-3.07-0.486-4.37-1.203v0.12
		c0,4.677,3.328,8.584,7.743,9.465c-0.807,0.224-1.662,0.344-2.544,0.344c-0.62,0-1.229-0.06-1.815-0.179
		c1.229,3.84,4.792,6.634,9.017,6.709c-3.302,2.592-7.463,4.139-11.991,4.139c-0.781,0-1.546-0.052-2.305-0.134
		c4.273,2.734,9.349,4.333,14.807,4.333c17.761,0,27.473-14.71,27.473-27.477c0-0.411-0.011-0.829-0.026-1.248
		C44.602,13.04,46.238,11.337,47.535,9.402z"/>
</g>
<g id="Layer_1">
</g>
</svg>
