<?xml version="1.0" encoding="iso-8859-1"?>
<!-- Generator: Adobe Illustrator 19.1.0, SVG Export Plug-In . SVG Version: 6.00 Build 0)  -->
<!DOCTYPE svg PUBLIC "-//W3C//DTD SVG 1.1//EN" "http://www.w3.org/Graphics/SVG/1.1/DTD/svg11.dtd">
<svg version="1.1" xmlns="http://www.w3.org/2000/svg" xmlns:xlink="http://www.w3.org/1999/xlink" x="0px" y="0px"
	 viewBox="0 0 48 48" style="enable-background:new 0 0 48 48;" xml:space="preserve">
<g id="youtube_x5F_white">
	<rect style="fill:none;" width="48" height="48"/>
	<g id="XMLID_250_">
		<path id="XMLID_251_" style="fill:#FFFFFF;" d="M46.567,12.951c-0.573-2.488-2.606-4.321-5.053-4.595
			c-5.798-0.649-11.666-0.649-17.505-0.649c-5.842,0-11.71,0-17.508,0.649c-2.447,0.274-4.48,2.107-5.05,4.595
			c-0.815,3.539-0.824,7.402-0.824,11.049c0,3.647,0,7.51,0.815,11.049c0.57,2.489,2.603,4.321,5.05,4.595
			c5.798,0.65,11.666,0.656,17.509,0.65c5.843,0.006,11.71,0,17.505-0.65c2.447-0.273,4.481-2.106,5.053-4.595
			c0.815-3.539,0.818-7.402,0.818-11.049C47.375,20.352,47.381,16.489,46.567,12.951z M17.965,31.255c0-5.168,0-10.285,0-15.459
			c4.955,2.584,9.878,5.155,14.864,7.752C27.859,26.132,22.936,28.684,17.965,31.255z"/>
	</g>
</g>
<g id="Layer_1">
</g>
</svg>
