<?xml version="1.0" encoding="iso-8859-1"?>
<!-- Generator: Adobe Illustrator 19.1.0, SVG Export Plug-In . SVG Version: 6.00 Build 0)  -->
<!DOCTYPE svg PUBLIC "-//W3C//DTD SVG 1.1//EN" "http://www.w3.org/Graphics/SVG/1.1/DTD/svg11.dtd">
<svg version="1.1" xmlns="http://www.w3.org/2000/svg" xmlns:xlink="http://www.w3.org/1999/xlink" x="0px" y="0px"
	 viewBox="0 0 48 48" style="enable-background:new 0 0 48 48;" xml:space="preserve">
<g id="admin">
	<rect style="fill:none;" width="48" height="48"/>
	<g id="XMLID_1_">
		<path id="XMLID_18_" style="fill:#2D767D;" d="M35.076,36.577v6.249H5.691V5.173h29.385V21.33l3.693-3.691V3.326
			c0-1.018-0.826-1.844-1.847-1.844H3.846C2.826,1.483,2,2.308,2,3.326v41.348c0,1.018,0.826,1.843,1.846,1.843h33.076
			c1.021,0,1.847-0.826,1.847-1.843V32.943"/>
		<g id="XMLID_16_">
			<path id="XMLID_17_" style="fill:#2D767D;" d="M29.54,14.031H10.299c-1.018,0-1.845-0.826-1.845-1.844
				c0-1.022,0.827-1.847,1.845-1.847H29.54c1.018,0,1.844,0.826,1.844,1.847C31.384,13.205,30.558,14.031,29.54,14.031z"/>
		</g>
		<g id="XMLID_14_">
			<path id="XMLID_15_" style="fill:#2D767D;" d="M29.54,22.111H10.299c-1.018,0-1.845-0.821-1.845-1.844
				c0-1.018,0.827-1.847,1.845-1.847H29.54c1.018,0,1.844,0.83,1.844,1.847C31.384,21.29,30.558,22.111,29.54,22.111z"/>
		</g>
		<g id="XMLID_12_">
			<path id="XMLID_13_" style="fill:#2D767D;" d="M26.103,29.824H10.299c-0.924,0-1.672-0.752-1.672-1.672
				c0-0.924,0.748-1.672,1.672-1.672h15.804c0.924,0,1.672,0.748,1.672,1.672C27.774,29.071,27.026,29.824,26.103,29.824z"/>
		</g>
		<g id="XMLID_10_">
			<path id="XMLID_11_" style="fill:#2D767D;" d="M20.385,38.175H10.299c-1.018,0-1.845-0.826-1.845-1.849
				c0-1.018,0.827-1.843,1.845-1.843h10.086c1.018,0,1.845,0.826,1.845,1.843C22.23,37.35,21.402,38.175,20.385,38.175z"/>
		</g>
		<g id="XMLID_6_">
			<g id="XMLID_7_">
				<path id="XMLID_9_" style="fill:#2D767D;" d="M26.215,35.971c-0.227,0.54-0.105,1.158,0.306,1.566
					c0.408,0.413,1.026,0.532,1.563,0.306l5.232-2.192l-4.909-4.908L26.215,35.971z"/>
				<path id="XMLID_8_" style="fill:#2D767D;" d="M47.326,20.272l-3.54-3.539c-0.556-0.556-1.463-0.556-2.019,0l-12.049,12.05
					c-0.002,0-0.005,0.004-0.008,0.008l5.559,5.559c0.004-0.004,0.006-0.004,0.008-0.009l12.05-12.045
					C47.881,21.735,47.881,20.828,47.326,20.272z"/>
			</g>
		</g>
		<g id="XMLID_2_">
			<g id="XMLID_3_">
				<path id="XMLID_5_" style="fill:#2D767D;" d="M26.215,35.971c-0.227,0.54-0.105,1.158,0.306,1.566
					c0.408,0.413,1.026,0.532,1.563,0.306l5.232-2.192l-4.909-4.908L26.215,35.971z"/>
				<path id="XMLID_4_" style="fill:#2D767D;" d="M47.326,20.272l-3.54-3.539c-0.556-0.556-1.463-0.556-2.019,0l-12.049,12.05
					c-0.002,0-0.005,0.004-0.008,0.008l5.559,5.559c0.004-0.004,0.006-0.004,0.008-0.009l12.05-12.045
					C47.881,21.735,47.881,20.828,47.326,20.272z"/>
			</g>
		</g>
	</g>
</g>
<g id="Layer_1">
</g>
</svg>
