<?xml version="1.0" encoding="iso-8859-1"?>
<!-- Generator: Adobe Illustrator 19.1.0, SVG Export Plug-In . SVG Version: 6.00 Build 0)  -->
<!DOCTYPE svg PUBLIC "-//W3C//DTD SVG 1.1//EN" "http://www.w3.org/Graphics/SVG/1.1/DTD/svg11.dtd">
<svg version="1.1" xmlns="http://www.w3.org/2000/svg" xmlns:xlink="http://www.w3.org/1999/xlink" x="0px" y="0px"
	 viewBox="0 0 48 48" style="enable-background:new 0 0 48 48;" xml:space="preserve">
<g id="asylum_x5F_grey">
	<rect style="fill:none;" width="48" height="48"/>
	<g id="XMLID_64_">
		<path id="XMLID_70_" style="fill:#BDBDBD;" d="M14.312,15.224c-1.571,3.453-3.065,6.742-4.588,10.089c3.042,0,5.975,0,9.019,0
			C17.26,21.936,15.819,18.656,14.312,15.224z"/>
		<path id="XMLID_69_" style="fill:#BDBDBD;" d="M33.987,25.33c-1.517-3.331-2.995-6.586-4.558-10.017
			c-1.536,3.431-2.996,6.708-4.475,10.017C28.013,25.33,30.968,25.33,33.987,25.33z"/>
		<path id="XMLID_66_" style="fill:#BDBDBD;" d="M45.966,46.458c0-13.013,0-26.022,0-39.035c0-0.21,0-0.415,0-0.658
			c-0.978,0-1.92,0-2.925,0c0,12.473,0,24.946,0,37.477c-0.245,0-0.423,0-0.603,0c-11.369,0-22.746-0.004-34.116,0.005
			c-1.094,0-2.066-0.234-2.761-1.127c-0.702-0.901-0.821-1.902-0.361-2.929c0.454-1.01,1.276-1.583,2.411-1.684
			c0.333-0.029,0.668-0.033,1.005-0.033c10.276,0,20.547,0,30.822,0c0.195,0,0.392,0,0.665,0c0-0.209,0-0.381,0-0.557
			c0-12.154,0-24.309-0.003-36.463c0-0.18-0.029-0.36-0.046-0.536c-10.9,0-21.799,0-32.704,0C6.898,1.03,6.436,1.114,5.996,1.256
			C3.569,2.048,1.991,4.21,1.991,6.715c0,11.505,0,23.014,0,34.519c0,2.841,1.724,5.032,4.525,5.757
			c0.065,0.016,0.128,0.062,0.195,0.092c13.102,0,26.201,0,39.299,0C45.995,46.873,45.966,46.664,45.966,46.458z M8.043,24.903
			c1.808-4.035,3.646-8.057,5.465-12.091c0.151-0.335,0.326-0.457,0.695-0.457c1.974,0.008,3.945-0.005,5.918-0.009
			c0.231-0.004,0.457-0.004,0.786-0.004c0-1.177,0-2.317,0-3.486c0.61,0,1.123,0,1.707,0c0,0.972,0.023,1.911-0.008,2.849
			c-0.017,0.486,0.117,0.654,0.628,0.645c2.038-0.033,4.072-0.008,6.106-0.037c0.451-0.009,0.683,0.147,0.863,0.545
			c1.83,4.051,3.677,8.09,5.501,12.146c0.105,0.234,0.115,0.578,0.027,0.821c-0.904,2.531-3.467,4.236-6.28,4.219
			c-2.832-0.016-5.318-1.672-6.232-4.189c-0.106-0.289-0.051-0.704,0.079-0.997c1.49-3.377,3.006-6.741,4.512-10.106
			c0.095-0.205,0.174-0.406,0.296-0.704c-4.194,0-8.289,0-12.442,0c0.096,0.252,0.176,0.482,0.277,0.704
			c1.485,3.352,2.97,6.708,4.474,10.055c0.201,0.44,0.195,0.809,0.005,1.244c-1.077,2.435-3.467,3.956-6.228,3.926
			c-2.818-0.025-5.194-1.575-6.174-4.081C7.904,25.61,7.917,25.188,8.043,24.903z"/>
	</g>
</g>
<g id="Layer_1">
</g>
</svg>
