<?xml version="1.0" encoding="iso-8859-1"?>
<!-- Generator: Adobe Illustrator 19.1.0, SVG Export Plug-In . SVG Version: 6.00 Build 0)  -->
<!DOCTYPE svg PUBLIC "-//W3C//DTD SVG 1.1//EN" "http://www.w3.org/Graphics/SVG/1.1/DTD/svg11.dtd">
<svg version="1.1" xmlns="http://www.w3.org/2000/svg" xmlns:xlink="http://www.w3.org/1999/xlink" x="0px" y="0px"
	 viewBox="0 0 48 48" style="enable-background:new 0 0 48 48;" xml:space="preserve">
<g id="contact">
	<rect style="fill:none;" width="48" height="48"/>
	<g id="XMLID_25_" style="opacity:0.2;">
		<path id="XMLID_31_" d="M29.407,30.116c5.289,0,9.592-4.301,9.592-9.592c0-5.287-4.303-9.592-9.592-9.592
			c-5.291,0-9.594,4.305-9.594,9.592C19.813,25.815,24.116,30.116,29.407,30.116z"/>
		<path id="XMLID_30_" d="M5.025,9.696h3.034c0.64,0,1.181-0.462,1.272-1.089c0.176-1.144,0.53-1.987,1.056-2.497
			c0.488-0.473,1.162-0.704,2.068-0.704c0.935,0,1.652,0.257,2.198,0.792c0.545,0.535,0.796,1.181,0.796,2.031
			c0,0.403-0.092,0.774-0.281,1.133c-0.101,0.18-0.48,0.737-1.931,1.965c-1.349,1.144-2.26,2.218-2.79,3.285
			c-0.541,1.085-0.805,2.666-0.805,4.814l0,0c0,0.711,0.577,1.287,1.287,1.287h2.743c0.711,0,1.289-0.576,1.289-1.287l0,0
			c0-1.661,0.202-2.339,0.319-2.6c0.092-0.205,0.477-0.81,2.007-2.075c1.419-1.181,2.378-2.255,2.924-3.282
			c0.559-1.056,0.843-2.215,0.843-3.439c0-2.189-0.829-4.015-2.471-5.438C17,1.226,14.931,0.533,12.434,0.533
			c-2.376,0-4.389,0.708-5.968,2.105C4.871,4.046,3.958,5.956,3.753,8.31l0,0C3.683,9.051,4.273,9.696,5.025,9.696z"/>
		<path id="XMLID_29_" d="M13.666,27.993c0.708,0,1.285-0.579,1.285-1.287v-2.739c0-0.708-0.578-1.287-1.285-1.287h-2.737
			c-0.713,0-1.287,0.579-1.287,1.287v2.739c0,0.708,0.574,1.287,1.287,1.287H13.666z"/>
		<path id="XMLID_26_" d="M29.407,32.023h-8.158c-3.692,0-6.686,2.996-6.686,6.692v7.469c0,0.708,0.574,1.283,1.283,1.283h13.561
			 M29.407,47.467h13.559c0.709,0,1.287-0.576,1.287-1.283v-7.469c0-3.696-2.996-6.692-6.688-6.692h-8.158"/>
	</g>
	<g id="XMLID_32_">
		<path id="XMLID_38_" style="fill:#2D767D;" d="M29.407,30.116c5.289,0,9.592-4.301,9.592-9.592c0-5.287-4.303-9.592-9.592-9.592
			c-5.291,0-9.594,4.305-9.594,9.592C19.813,25.815,24.116,30.116,29.407,30.116z"/>
		<path id="XMLID_37_" style="fill:#2D767D;" d="M5.025,9.696h3.034c0.64,0,1.181-0.462,1.272-1.089
			c0.176-1.144,0.53-1.987,1.056-2.497c0.488-0.473,1.162-0.704,2.068-0.704c0.935,0,1.652,0.257,2.198,0.792
			c0.545,0.535,0.796,1.181,0.796,2.031c0,0.403-0.092,0.774-0.281,1.133c-0.101,0.18-0.48,0.737-1.931,1.965
			c-1.349,1.144-2.26,2.218-2.79,3.285c-0.541,1.085-0.805,2.666-0.805,4.814l0,0c0,0.711,0.577,1.287,1.287,1.287h2.743
			c0.711,0,1.289-0.576,1.289-1.287l0,0c0-1.661,0.202-2.339,0.319-2.6c0.092-0.205,0.477-0.81,2.007-2.075
			c1.419-1.181,2.378-2.255,2.924-3.282c0.559-1.056,0.843-2.215,0.843-3.439c0-2.189-0.829-4.015-2.471-5.438
			C17,1.226,14.931,0.533,12.434,0.533c-2.376,0-4.389,0.708-5.968,2.105C4.871,4.046,3.958,5.956,3.753,8.31l0,0
			C3.683,9.051,4.273,9.696,5.025,9.696z"/>
		<path id="XMLID_36_" style="fill:#2D767D;" d="M13.666,27.993c0.708,0,1.285-0.579,1.285-1.287v-2.739
			c0-0.708-0.578-1.287-1.285-1.287h-2.737c-0.713,0-1.287,0.579-1.287,1.287v2.739c0,0.708,0.574,1.287,1.287,1.287H13.666z"/>
		<path id="XMLID_33_" style="fill:#2D767D;" d="M29.407,32.023h-8.158c-3.692,0-6.686,2.996-6.686,6.692v7.469
			c0,0.708,0.574,1.283,1.283,1.283h13.561 M29.407,47.467h13.559c0.709,0,1.287-0.576,1.287-1.283v-7.469
			c0-3.696-2.996-6.692-6.688-6.692h-8.158"/>
	</g>
</g>
<g id="Layer_1">
</g>
</svg>
