<?xml version="1.0" encoding="iso-8859-1"?>
<!-- Generator: Adobe Illustrator 19.1.0, SVG Export Plug-In . SVG Version: 6.00 Build 0)  -->
<!DOCTYPE svg PUBLIC "-//W3C//DTD SVG 1.1//EN" "http://www.w3.org/Graphics/SVG/1.1/DTD/svg11.dtd">
<svg version="1.1" xmlns="http://www.w3.org/2000/svg" xmlns:xlink="http://www.w3.org/1999/xlink" x="0px" y="0px"
	 viewBox="0 0 48 48" style="enable-background:new 0 0 48 48;" xml:space="preserve">
<g id="entertainment_x5F_grey">
	<rect style="fill:none;" width="48" height="48"/>
	<g id="XMLID_56_">
		<path id="XMLID_59_" style="fill:#BDBDBD;" d="M30.479,18.903L30.479,18.903l5.946-5.785c0.185-0.18,0.252-0.448,0.173-0.695
			c-0.081-0.244-0.291-0.425-0.548-0.459l-10.549-1.525l-4.708-9.561C20.68,0.646,20.444,0.5,20.186,0.5
			c-0.258,0-0.496,0.146-0.607,0.378l-4.708,9.561L4.323,11.964c-0.256,0.034-0.47,0.215-0.551,0.459
			c-0.078,0.247-0.011,0.515,0.173,0.695l7.64,7.434L9.774,31.054c-0.046,0.254,0.06,0.51,0.268,0.664
			c0.118,0.086,0.258,0.129,0.397,0.129c0.109,0,0.217-0.028,0.316-0.079l9.43-4.968l4.485,2.364l0,0l1.038,0.547l3.905,2.057
			c0.099,0.051,0.208,0.078,0.318,0.078c0.138,0,0.277-0.041,0.399-0.127c0.207-0.154,0.314-0.409,0.268-0.664l-1.814-10.502
			L30.479,18.903z"/>
		<path id="XMLID_58_" style="fill:#BDBDBD;" d="M36.028,17.793l-3.937,3.832l0.8,4.633l9.411-1.882v13.729
			c-1.342-0.586-3.201-0.586-4.997,0.339c-2.671,1.377-3.424,3.882-2.399,5.471c1.028,1.589,3.839,2.256,6.513,0.883
			c1.922-0.989,2.849-2.565,2.842-3.96V23.984v-5.877V16.15L36.028,17.793z"/>
		<path id="XMLID_57_" style="fill:#BDBDBD;" d="M24.672,40.063c-1.34-0.583-3.198-0.583-4.997,0.342
			c-2.673,1.375-3.425,3.878-2.399,5.467c1.029,1.591,3.839,2.258,6.514,0.886c1.927-0.994,2.852-2.57,2.839-3.963v-9.123
			l-1.956-1.033V40.063z"/>
	</g>
</g>
<g id="Layer_1">
</g>
</svg>
