<?xml version="1.0" encoding="iso-8859-1"?>
<!-- Generator: Adobe Illustrator 19.1.0, SVG Export Plug-In . SVG Version: 6.00 Build 0)  -->
<!DOCTYPE svg PUBLIC "-//W3C//DTD SVG 1.1//EN" "http://www.w3.org/Graphics/SVG/1.1/DTD/svg11.dtd">
<svg version="1.1" xmlns="http://www.w3.org/2000/svg" xmlns:xlink="http://www.w3.org/1999/xlink" x="0px" y="0px"
	 viewBox="0 0 48 48" style="enable-background:new 0 0 48 48;" xml:space="preserve">
<g id="food_x5F_grey">
	<rect style="fill:none;" width="48" height="48"/>
	<g>
		<g>
			<path style="fill:#BDBDBD;" d="M15.215,17.365v27.611c0,0.707,0.258,1.316,0.774,1.83c0.508,0.508,1.105,0.763,1.798,0.773
				c0.691-0.011,1.294-0.265,1.802-0.773c0.514-0.514,0.772-1.123,0.772-1.83V17.365c0.773-0.272,3.671-2.857,3.671-3.685V2.792
				c0-0.355-0.123-0.66-0.386-0.919c-0.259-0.256-0.561-0.384-0.912-0.384c-0.355,0-0.66,0.128-0.916,0.384
				c-0.263,0.259-0.388,0.564-0.388,0.919v8.467c0,0.355-0.131,0.659-0.386,0.916c-0.261,0.259-0.566,0.387-0.916,0.387
				c-0.353,0-0.664-0.128-0.914-0.387c-0.261-0.257-0.391-0.566-0.391-0.916V2.792c0-0.355-0.129-0.66-0.388-0.919
				c-0.258-0.256-0.562-0.384-0.914-0.384c-0.358,0-0.661,0.128-0.916,0.384c-0.261,0.259-0.386,0.564-0.386,0.919v8.467
				c0,0.355-0.13,0.659-0.388,0.916c-0.261,0.259-0.564,0.387-0.916,0.387c-0.353,0-0.659-0.128-0.917-0.387
				c-0.258-0.257-0.388-0.566-0.388-0.916V2.792c0-0.355-0.126-0.66-0.387-0.919c-0.258-0.256-0.561-0.384-0.914-0.384
				c-0.35,0-0.661,0.128-0.916,0.384c-0.256,0.259-0.389,0.564-0.389,0.919V13.68C11.011,14.509,14.441,17.094,15.215,17.365z"/>
			<path style="fill:#BDBDBD;" d="M17.821,47.583c-0.011,0-0.022-0.003-0.035-0.003c-0.011,0-0.02,0.003-0.033,0.003H17.821z"/>
			<path style="fill:#BDBDBD;" d="M34.455,47.583c-0.009,0-0.018-0.006-0.031-0.006c-0.008,0-0.022,0.006-0.035,0.006H34.455z"/>
			<path style="fill:#BDBDBD;" d="M28.894,23.866h2.957v21.113c0,0.705,0.258,1.313,0.772,1.83c0.509,0.509,1.111,0.761,1.802,0.769
				c0.69-0.008,1.291-0.259,1.797-0.769c0.515-0.517,0.773-1.125,0.773-1.83V1.723c0-0.355-0.129-0.66-0.387-0.918
				c-0.256-0.259-0.561-0.389-0.914-0.389h-0.937c-1.789,0-3.322,0.639-4.599,1.916c-1.275,1.275-1.914,2.809-1.914,4.599v16.287
				c0,0.175,0.065,0.327,0.195,0.456C28.566,23.803,28.716,23.866,28.894,23.866z"/>
		</g>
	</g>
</g>
<g id="Layer_1">
</g>
</svg>
