<?xml version="1.0" encoding="iso-8859-1"?>
<!-- Generator: Adobe Illustrator 19.1.0, SVG Export Plug-In . SVG Version: 6.00 Build 0)  -->
<!DOCTYPE svg PUBLIC "-//W3C//DTD SVG 1.1//EN" "http://www.w3.org/Graphics/SVG/1.1/DTD/svg11.dtd">
<svg version="1.1" xmlns="http://www.w3.org/2000/svg" xmlns:xlink="http://www.w3.org/1999/xlink" x="0px" y="0px"
	 viewBox="0 0 48 48" style="enable-background:new 0 0 48 48;" xml:space="preserve">
<g id="healthcare_x5F_grey">
	<rect style="fill:none;" width="48" height="48"/>
	<g>
		<path style="fill:#BDBDBD;" d="M27.607,47.375c-8.061,0-14.617-6.556-14.617-14.62v-1.786C6.834,30.092,2.102,24.701,2.102,18.427
			V7.042c0-2.027,1.146-3.886,2.949-4.799c0.462-0.979,1.45-1.618,2.54-1.618c1.552,0,2.818,1.267,2.818,2.823
			c0,1.549-1.266,2.809-2.818,2.809c-0.52,0-1.017-0.139-1.454-0.405C5.852,6.177,5.687,6.597,5.687,7.042v11.384
			c0,5.015,4.078,9.091,9.094,9.091c5.017,0,9.091-4.076,9.091-9.091V7.042c0-0.427-0.155-0.836-0.424-1.154
			c-0.422,0.241-0.902,0.369-1.401,0.369c-1.556,0-2.814-1.26-2.814-2.809c0-1.556,1.258-2.823,2.814-2.823
			c1.129,0,2.129,0.665,2.577,1.676c1.729,0.942,2.836,2.772,2.836,4.741v11.384c0,6.275-4.737,11.669-10.888,12.549v1.779
			c0,6.088,4.949,11.037,11.034,11.037c6.085,0,11.036-4.949,11.036-11.037V16.107c-2.186-0.76-3.669-2.805-3.669-5.157
			c0-3.013,2.449-5.464,5.462-5.464c3.013,0,5.462,2.451,5.462,5.464c0,2.352-1.487,4.397-3.672,5.157v16.647
			C42.225,40.819,35.667,47.375,27.607,47.375z"/>
	</g>
</g>
<g id="Layer_1">
</g>
</svg>
