<?xml version="1.0" encoding="iso-8859-1"?>
<!-- Generator: Adobe Illustrator 19.1.0, SVG Export Plug-In . SVG Version: 6.00 Build 0)  -->
<!DOCTYPE svg PUBLIC "-//W3C//DTD SVG 1.1//EN" "http://www.w3.org/Graphics/SVG/1.1/DTD/svg11.dtd">
<svg version="1.1" xmlns="http://www.w3.org/2000/svg" xmlns:xlink="http://www.w3.org/1999/xlink" x="0px" y="0px"
	 viewBox="0 0 48 48" style="enable-background:new 0 0 48 48;" xml:space="preserve">
<g id="maps_x5F_grey">
	<rect style="fill:none;" width="48" height="48"/>
	<g>
		<path style="fill:#BDBDBD;" d="M24.525,6.757c-5.057,0-9.145,4.089-9.145,9.145c0,6.858,9.145,16.983,9.145,16.983
			s9.145-10.124,9.145-16.983C33.67,10.846,29.581,6.757,24.525,6.757z M24.525,19.169c-1.803,0-3.266-1.464-3.266-3.266
			s1.464-3.265,3.266-3.265c1.803,0,3.266,1.463,3.266,3.265S26.328,19.169,24.525,19.169z"/>
		<g id="XMLID_65_">
			<path id="XMLID_71_" style="fill:#BDBDBD;" d="M47.241,39.194l-6.397-13.711c-0.235-0.509-0.746-0.834-1.307-0.834h-6.71
				c-0.54,0.823-1.082,1.651-1.62,2.476c-0.091,0.134-0.183,0.273-0.274,0.411h7.685L43.67,38.36H4.36l5.212-10.824h8.588
				c-0.631-0.964-1.266-1.923-1.902-2.887H8.665c-0.553,0-1.06,0.318-1.299,0.817l-6.598,13.71
				c-0.214,0.447-0.185,0.973,0.078,1.392c0.264,0.421,0.725,0.674,1.221,0.674h43.865c0.495,0,0.952-0.25,1.218-0.668
				C47.413,40.161,47.448,39.64,47.241,39.194z"/>
		</g>
	</g>
</g>
<g id="Layer_1">
</g>
</svg>
