<?xml version="1.0" encoding="iso-8859-1"?>
<!-- Generator: Adobe Illustrator 19.1.0, SVG Export Plug-In . SVG Version: 6.00 Build 0)  -->
<!DOCTYPE svg PUBLIC "-//W3C//DTD SVG 1.1//EN" "http://www.w3.org/Graphics/SVG/1.1/DTD/svg11.dtd">
<svg version="1.1" xmlns="http://www.w3.org/2000/svg" xmlns:xlink="http://www.w3.org/1999/xlink" x="0px" y="0px"
	 viewBox="0 0 48 48" style="enable-background:new 0 0 48 48;" xml:space="preserve">
<g id="shelter">
	<rect style="fill:none;" width="48" height="48"/>
	<g id="XMLID_74_">
		<g>
			<path id="XMLID_41_" style="fill-rule:evenodd;clip-rule:evenodd;fill:#2D767D;" d="M21.19,25.49
				c6.585,0,12.979-0.099,19.365,0.05c2.446,0.056,4.193,1.99,4.193,4.479c0,1.779-0.028,3.567-0.028,5.347
				c0,0.652-0.527,1.412-1.366,1.412l-22.165-0.02"/>
			<path id="XMLID_40_" style="fill-rule:evenodd;clip-rule:evenodd;fill:#2D767D;" d="M47.564,19.026
				c-3.834-1.72-7.358-3.294-10.879-4.883c-3.784-1.708-7.543-3.48-11.365-5.101c-0.723-0.305-1.814-0.291-2.535,0.026
				c-6.818,2.996-13.59,6.092-20.378,9.151c-0.531,0.238-1.081,0.434-1.98,0.793c0-1.643-0.102-3.064,0.058-4.454
				c0.056-0.484,0.676-1.082,1.183-1.313c7.07-3.24,14.154-6.448,21.272-9.579c0.667-0.291,1.695-0.239,2.377,0.061
				c7.055,3.111,14.082,6.282,21.077,9.521c0.54,0.25,1.028,1.097,1.119,1.727C47.687,16.188,47.564,17.442,47.564,19.026z"/>
			<path id="XMLID_39_" style="fill-rule:evenodd;clip-rule:evenodd;fill:#2D767D;" d="M47.466,39.688c0,1.623,0,3.177,0,4.838
				c-15.659,0-31.211,0-46.904,0c0-1.583,0-3.124,0-4.838C16.203,39.688,31.795,39.688,47.466,39.688z"/>
			<path id="XMLID_38_" style="fill-rule:evenodd;clip-rule:evenodd;fill:#2D767D;" d="M14.383,32.09
				c0-1.619-0.013-2.931,0.004-4.242c0.018-1.44,0.81-2.267,2.2-2.265c1.38,0.004,2.211,0.841,2.244,2.254
				c0.047,2.113,0.032,4.227,0.013,6.34c-0.013,1.514-0.823,2.375-2.317,2.394c-3.301,0.042-6.604,0.035-9.905-0.016
				c-1.403-0.024-2.252-0.817-2.185-2.261c0.063-1.388,0.892-2.178,2.304-2.197C9.176,32.066,11.613,32.09,14.383,32.09z"/>
			<path id="XMLID_37_" style="fill-rule:evenodd;clip-rule:evenodd;fill:#2D767D;" d="M7.948,29.842
				c-2.612,0.018-4.782-2.139-4.793-4.762c-0.011-2.669,2.061-4.803,4.7-4.838c2.659-0.036,4.84,2.025,4.909,4.639
				C12.836,27.572,10.653,29.822,7.948,29.842z"/>
		</g>
	</g>
</g>
<g id="Layer_1">
</g>
</svg>
