<?xml version="1.0" encoding="iso-8859-1"?>
<!-- Generator: Adobe Illustrator 19.1.0, SVG Export Plug-In . SVG Version: 6.00 Build 0)  -->
<!DOCTYPE svg PUBLIC "-//W3C//DTD SVG 1.1//EN" "http://www.w3.org/Graphics/SVG/1.1/DTD/svg11.dtd">
<svg version="1.1" xmlns="http://www.w3.org/2000/svg" xmlns:xlink="http://www.w3.org/1999/xlink" x="0px" y="0px"
	 viewBox="0 0 48 48" style="enable-background:new 0 0 48 48;" xml:space="preserve">
<g id="transportation_x5F_grey">
	<rect style="fill:none;" width="48" height="48"/>
	<g id="XMLID_80_">
		<path id="XMLID_83_" style="fill-rule:evenodd;clip-rule:evenodd;fill:#BDBDBD;" d="M15.135,37.266
			c-3.274-1.177-4.543-3.462-4.505-6.747c0.075-6.567,0.018-13.137,0.022-19.707c0.002-4.028,2.419-6.441,6.465-6.445
			c4.626-0.007,9.252-0.007,13.878,0c3.888,0.007,6.359,2.476,6.359,6.338c0,6.569,0,13.136,0,19.707
			c0,3.726-1.017,5.327-4.46,6.879c2.224,3.344,4.435,6.669,6.78,10.194c-1.381,0-2.566,0.037-3.749-0.033
			c-0.267-0.015-0.572-0.368-0.758-0.633c-1.33-1.913-2.645-3.833-3.933-5.775c-0.346-0.522-0.706-0.773-1.356-0.769
			c-3.921,0.029-7.841-0.007-11.761,0.044c-0.429,0.007-1.002,0.32-1.26,0.673c-1.267,1.74-2.485,3.513-3.649,5.327
			c-0.543,0.85-1.118,1.346-2.2,1.199c-0.791-0.11-1.606-0.026-2.684-0.026C10.66,43.987,12.873,40.665,15.135,37.266z
			 M23.99,10.406c-2.327,0-4.655-0.011-6.98,0.002c-2.077,0.015-3.131,1.072-3.14,3.122c-0.009,1.203-0.006,2.399,0,3.598
			c0.004,1.913,1.063,3.101,2.956,3.116c4.795,0.04,9.592,0.04,14.387,0c1.83-0.015,2.917-1.196,2.961-3.039
			c0.022-1.199,0.015-2.395,0-3.598c-0.024-2.116-1.091-3.185-3.2-3.198C28.645,10.395,26.317,10.406,23.99,10.406z M23.957,9.275
			c0.53,0,1.059,0,1.587,0c2.395,0,2.487-0.114,2.351-2.507c-0.044-0.793-0.397-1.144-1.188-1.137
			c-1.446,0.018-2.893,0.007-4.337,0.007c-2.264,0-2.312,0.05-2.251,2.292c0.006,0.107-0.002,0.212,0.006,0.318
			c0.042,0.677,0.386,1.028,1.08,1.026C22.123,9.271,23.039,9.273,23.957,9.275z M19.163,31.487
			c0.022-1.482-1.183-2.719-2.645-2.712c-1.424,0.011-2.628,1.196-2.649,2.616c-0.024,1.49,1.155,2.678,2.654,2.678
			C17.994,34.069,19.147,32.94,19.163,31.487z M34.034,31.406c-0.007-1.464-1.14-2.612-2.594-2.627
			c-1.442-0.018-2.706,1.251-2.682,2.693c0.024,1.453,1.174,2.586,2.641,2.597C32.936,34.084,34.047,32.962,34.034,31.406z"/>
		<path id="XMLID_82_" style="fill-rule:evenodd;clip-rule:evenodd;fill:#BDBDBD;" d="M26.168,3.788
			c-0.947-0.015-1.679-0.758-1.663-1.689c0.015-0.914,0.804-1.666,1.718-1.643c0.953,0.022,1.643,0.741,1.632,1.701
			C27.843,3.118,27.131,3.805,26.168,3.788z"/>
		<path id="XMLID_81_" style="fill-rule:evenodd;clip-rule:evenodd;fill:#BDBDBD;" d="M21.792,0.458
			c0.944-0.009,1.688,0.725,1.69,1.661c0.004,0.938-0.728,1.682-1.665,1.687c-0.936,0.007-1.676-0.723-1.687-1.667
			C20.124,1.189,20.835,0.462,21.792,0.458z"/>
	</g>
</g>
<g id="Layer_1">
</g>
</svg>
